{
    "asset" : {
        "generator" : "Khronos glTF Blender I/O v0.9.36",
        "version" : "2.0"
    },
    "scene" : 0,
    "scenes" : [
        {
            "name" : "Scene",
            "nodes" : [
                1
            ]
        }
    ],
    "nodes" : [
        {
            "mesh" : 0,
            "name" : "mageHairB"
        },
        {
            "children" : [
                0
            ],
            "mesh" : 1,
            "name" : "mageHeadB"
        }
    ],
    "materials" : [
        {
            "name" : "BrownDark",
            "pbrMetallicRoughness" : {
                "baseColorFactor" : [
                    0.32694560289382935,
                    0.10152623057365417,
                    0.05927089974284172,
                    1
                ],
                "metallicFactor" : 0,
                "roughnessFactor" : 0.4000000059604645
            }
        },
        {
            "name" : "Red",
            "pbrMetallicRoughness" : {
                "baseColorFactor" : [
                    1,
                    0.02505292184650898,
                    0.11802464723587036,
                    1
                ],
                "metallicFactor" : 0,
                "roughnessFactor" : 0.20000000298023224
            }
        },
        {
            "doubleSided" : true,
            "name" : "Brown",
            "pbrMetallicRoughness" : {
                "baseColorFactor" : [
                    0.5778115391731262,
                    0.23347531259059906,
                    0.11534765362739563,
                    1
                ],
                "metallicFactor" : 0,
                "roughnessFactor" : 0.5
            }
        },
        {
            "name" : "Black",
            "pbrMetallicRoughness" : {
                "baseColorFactor" : [
                    0.019794002175331116,
                    0.03207586705684662,
                    0.037408243864774704,
                    1
                ],
                "metallicFactor" : 0,
                "roughnessFactor" : 0.5
            }
        }
    ],
    "meshes" : [
        {
            "name" : "Cube.3534",
            "primitives" : [
                {
                    "attributes" : {
                        "POSITION" : 0,
                        "NORMAL" : 1,
                        "TEXCOORD_0" : 2
                    },
                    "indices" : 3,
                    "material" : 0
                },
                {
                    "attributes" : {
                        "POSITION" : 4,
                        "NORMAL" : 5,
                        "TEXCOORD_0" : 6
                    },
                    "indices" : 7,
                    "material" : 1
                }
            ]
        },
        {
            "name" : "Cube.3535",
            "primitives" : [
                {
                    "attributes" : {
                        "POSITION" : 8,
                        "NORMAL" : 9,
                        "TEXCOORD_0" : 10
                    },
                    "indices" : 11,
                    "material" : 2
                },
                {
                    "attributes" : {
                        "POSITION" : 12,
                        "NORMAL" : 13,
                        "TEXCOORD_0" : 14
                    },
                    "indices" : 15,
                    "material" : 3
                },
                {
                    "attributes" : {
                        "POSITION" : 16,
                        "NORMAL" : 17,
                        "TEXCOORD_0" : 18
                    },
                    "indices" : 19,
                    "material" : 0
                }
            ]
        }
    ],
    "accessors" : [
        {
            "bufferView" : 0,
            "componentType" : 5126,
            "count" : 552,
            "max" : [
                0.5549558401107788,
                1.0763214826583862,
                0.5324631333351135
            ],
            "min" : [
                -0.5562986731529236,
                -0.33901602029800415,
                -0.5556283593177795
            ],
            "type" : "VEC3"
        },
        {
            "bufferView" : 1,
            "componentType" : 5126,
            "count" : 552,
            "type" : "VEC3"
        },
        {
            "bufferView" : 2,
            "componentType" : 5126,
            "count" : 552,
            "type" : "VEC2"
        },
        {
            "bufferView" : 3,
            "componentType" : 5123,
            "count" : 2820,
            "type" : "SCALAR"
        },
        {
            "bufferView" : 4,
            "componentType" : 5126,
            "count" : 40,
            "max" : [
                0.09846580028533936,
                0.061881210654973984,
                -0.33244776725769043
            ],
            "min" : [
                -0.09980867803096771,
                -0.04590900242328644,
                -0.455662339925766
            ],
            "type" : "VEC3"
        },
        {
            "bufferView" : 5,
            "componentType" : 5126,
            "count" : 40,
            "type" : "VEC3"
        },
        {
            "bufferView" : 6,
            "componentType" : 5126,
            "count" : 40,
            "type" : "VEC2"
        },
        {
            "bufferView" : 7,
            "componentType" : 5123,
            "count" : 192,
            "type" : "SCALAR"
        },
        {
            "bufferView" : 8,
            "componentType" : 5126,
            "count" : 690,
            "max" : [
                0.5877276062965393,
                0.9703007936477661,
                0.5602684617042542
            ],
            "min" : [
                -0.5877274870872498,
                0,
                -0.49049949645996094
            ],
            "type" : "VEC3"
        },
        {
            "bufferView" : 9,
            "componentType" : 5126,
            "count" : 690,
            "type" : "VEC3"
        },
        {
            "bufferView" : 10,
            "componentType" : 5126,
            "count" : 690,
            "type" : "VEC2"
        },
        {
            "bufferView" : 11,
            "componentType" : 5123,
            "count" : 2724,
            "type" : "SCALAR"
        },
        {
            "bufferView" : 12,
            "componentType" : 5126,
            "count" : 115,
            "max" : [
                0.352085143327713,
                0.4932206869125366,
                0.468027800321579
            ],
            "min" : [
                -0.35207247734069824,
                0.37547218799591064,
                0.33534204959869385
            ],
            "type" : "VEC3"
        },
        {
            "bufferView" : 13,
            "componentType" : 5126,
            "count" : 115,
            "type" : "VEC3"
        },
        {
            "bufferView" : 14,
            "componentType" : 5126,
            "count" : 115,
            "type" : "VEC2"
        },
        {
            "bufferView" : 15,
            "componentType" : 5123,
            "count" : 426,
            "type" : "SCALAR"
        },
        {
            "bufferView" : 16,
            "componentType" : 5126,
            "count" : 732,
            "max" : [
                0.39657145738601685,
                0.6319589018821716,
                0.47212326526641846
            ],
            "min" : [
                -0.39546525478363037,
                0.5062738060951233,
                0.2781023383140564
            ],
            "type" : "VEC3"
        },
        {
            "bufferView" : 17,
            "componentType" : 5126,
            "count" : 732,
            "type" : "VEC3"
        },
        {
            "bufferView" : 18,
            "componentType" : 5126,
            "count" : 732,
            "type" : "VEC2"
        },
        {
            "bufferView" : 19,
            "componentType" : 5123,
            "count" : 3576,
            "type" : "SCALAR"
        }
    ],
    "bufferViews" : [
        {
            "buffer" : 0,
            "byteLength" : 6624,
            "byteOffset" : 0
        },
        {
            "buffer" : 0,
            "byteLength" : 6624,
            "byteOffset" : 6624
        },
        {
            "buffer" : 0,
            "byteLength" : 4416,
            "byteOffset" : 13248
        },
        {
            "buffer" : 0,
            "byteLength" : 5640,
            "byteOffset" : 17664
        },
        {
            "buffer" : 0,
            "byteLength" : 480,
            "byteOffset" : 23304
        },
        {
            "buffer" : 0,
            "byteLength" : 480,
            "byteOffset" : 23784
        },
        {
            "buffer" : 0,
            "byteLength" : 320,
            "byteOffset" : 24264
        },
        {
            "buffer" : 0,
            "byteLength" : 384,
            "byteOffset" : 24584
        },
        {
            "buffer" : 0,
            "byteLength" : 8280,
            "byteOffset" : 24968
        },
        {
            "buffer" : 0,
            "byteLength" : 8280,
            "byteOffset" : 33248
        },
        {
            "buffer" : 0,
            "byteLength" : 5520,
            "byteOffset" : 41528
        },
        {
            "buffer" : 0,
            "byteLength" : 5448,
            "byteOffset" : 47048
        },
        {
            "buffer" : 0,
            "byteLength" : 1380,
            "byteOffset" : 52496
        },
        {
            "buffer" : 0,
            "byteLength" : 1380,
            "byteOffset" : 53876
        },
        {
            "buffer" : 0,
            "byteLength" : 920,
            "byteOffset" : 55256
        },
        {
            "buffer" : 0,
            "byteLength" : 852,
            "byteOffset" : 56176
        },
        {
            "buffer" : 0,
            "byteLength" : 8784,
            "byteOffset" : 57028
        },
        {
            "buffer" : 0,
            "byteLength" : 8784,
            "byteOffset" : 65812
        },
        {
            "buffer" : 0,
            "byteLength" : 5856,
            "byteOffset" : 74596
        },
        {
            "buffer" : 0,
            "byteLength" : 7152,
            "byteOffset" : 80452
        }
    ],
    "buffers" : [
        {
            "byteLength" : 87604,
            "uri" : "data:application/octet-stream;base64,"
        }
    ]
}
