{
    "asset" : {
        "generator" : "Khronos glTF Blender I/O v0.9.36",
        "version" : "2.0"
    },
    "scene" : 0,
    "scenes" : [
        {
            "name" : "Scene",
            "nodes" : [
                1
            ]
        }
    ],
    "nodes" : [
        {
            "mesh" : 0,
            "name" : "rogueHairA"
        },
        {
            "children" : [
                0
            ],
            "mesh" : 1,
            "name" : "rogueHeadA"
        }
    ],
    "materials" : [
        {
            "name" : "Black",
            "pbrMetallicRoughness" : {
                "baseColorFactor" : [
                    0.019794002175331116,
                    0.03207586705684662,
                    0.037408243864774704,
                    1
                ],
                "metallicFactor" : 0,
                "roughnessFactor" : 0.5
            }
        },
        {
            "name" : "BrownDark",
            "pbrMetallicRoughness" : {
                "baseColorFactor" : [
                    0.32694560289382935,
                    0.10152623057365417,
                    0.05927089974284172,
                    1
                ],
                "metallicFactor" : 0,
                "roughnessFactor" : 0.4000000059604645
            }
        }
    ],
    "meshes" : [
        {
            "name" : "Cube.3523",
            "primitives" : [
                {
                    "attributes" : {
                        "POSITION" : 0,
                        "NORMAL" : 1,
                        "TEXCOORD_0" : 2
                    },
                    "indices" : 3,
                    "material" : 0
                }
            ]
        },
        {
            "name" : "Cube.3522",
            "primitives" : [
                {
                    "attributes" : {
                        "POSITION" : 4,
                        "NORMAL" : 5,
                        "TEXCOORD_0" : 6
                    },
                    "indices" : 7,
                    "material" : 1
                },
                {
                    "attributes" : {
                        "POSITION" : 8,
                        "NORMAL" : 9,
                        "TEXCOORD_0" : 10
                    },
                    "indices" : 11,
                    "material" : 0
                }
            ]
        }
    ],
    "accessors" : [
        {
            "bufferView" : 0,
            "componentType" : 5126,
            "count" : 566,
            "max" : [
                0.5684033036231995,
                1.0562145709991455,
                0.5324633121490479
            ],
            "min" : [
                -0.5556272864341736,
                -0.1640237718820572,
                -0.5556555390357971
            ],
            "type" : "VEC3"
        },
        {
            "bufferView" : 1,
            "componentType" : 5126,
            "count" : 566,
            "type" : "VEC3"
        },
        {
            "bufferView" : 2,
            "componentType" : 5126,
            "count" : 566,
            "type" : "VEC2"
        },
        {
            "bufferView" : 3,
            "componentType" : 5123,
            "count" : 2916,
            "type" : "SCALAR"
        },
        {
            "bufferView" : 4,
            "componentType" : 5126,
            "count" : 723,
            "max" : [
                0.5877276062965393,
                0.9703007936477661,
                0.5643507242202759
            ],
            "min" : [
                -0.5877274870872498,
                0,
                -0.49049949645996094
            ],
            "type" : "VEC3"
        },
        {
            "bufferView" : 5,
            "componentType" : 5126,
            "count" : 723,
            "type" : "VEC3"
        },
        {
            "bufferView" : 6,
            "componentType" : 5126,
            "count" : 723,
            "type" : "VEC2"
        },
        {
            "bufferView" : 7,
            "componentType" : 5123,
            "count" : 2820,
            "type" : "SCALAR"
        },
        {
            "bufferView" : 8,
            "componentType" : 5126,
            "count" : 115,
            "max" : [
                0.352085143327713,
                0.4932206869125366,
                0.468027800321579
            ],
            "min" : [
                -0.35207247734069824,
                0.35582518577575684,
                0.33534204959869385
            ],
            "type" : "VEC3"
        },
        {
            "bufferView" : 9,
            "componentType" : 5126,
            "count" : 115,
            "type" : "VEC3"
        },
        {
            "bufferView" : 10,
            "componentType" : 5126,
            "count" : 115,
            "type" : "VEC2"
        },
        {
            "bufferView" : 11,
            "componentType" : 5123,
            "count" : 426,
            "type" : "SCALAR"
        }
    ],
    "bufferViews" : [
        {
            "buffer" : 0,
            "byteLength" : 6792,
            "byteOffset" : 0
        },
        {
            "buffer" : 0,
            "byteLength" : 6792,
            "byteOffset" : 6792
        },
        {
            "buffer" : 0,
            "byteLength" : 4528,
            "byteOffset" : 13584
        },
        {
            "buffer" : 0,
            "byteLength" : 5832,
            "byteOffset" : 18112
        },
        {
            "buffer" : 0,
            "byteLength" : 8676,
            "byteOffset" : 23944
        },
        {
            "buffer" : 0,
            "byteLength" : 8676,
            "byteOffset" : 32620
        },
        {
            "buffer" : 0,
            "byteLength" : 5784,
            "byteOffset" : 41296
        },
        {
            "buffer" : 0,
            "byteLength" : 5640,
            "byteOffset" : 47080
        },
        {
            "buffer" : 0,
            "byteLength" : 1380,
            "byteOffset" : 52720
        },
        {
            "buffer" : 0,
            "byteLength" : 1380,
            "byteOffset" : 54100
        },
        {
            "buffer" : 0,
            "byteLength" : 920,
            "byteOffset" : 55480
        },
        {
            "buffer" : 0,
            "byteLength" : 852,
            "byteOffset" : 56400
        }
    ],
    "buffers" : [
        {
            "byteLength" : 57252,
            "uri" : "data:application/octet-stream;base64,"
        }
    ]
}
