{
    "asset" : {
        "generator" : "Khronos glTF Blender I/O v0.9.36",
        "version" : "2.0"
    },
    "scene" : 0,
    "scenes" : [
        {
            "name" : "Scene",
            "nodes" : [
                3
            ]
        }
    ],
    "nodes" : [
        {
            "mesh" : 0,
            "name" : "PrototypePete_armLeft",
            "translation" : [
                0.20404481887817383,
                0.6335563659667969,
                0
            ]
        },
        {
            "mesh" : 1,
            "name" : "PrototypePete_armRight",
            "translation" : [
                -0.20404481887817383,
                0.6335563659667969,
                0
            ]
        },
        {
            "mesh" : 2,
            "name" : "PrototypePete_head",
            "translation" : [
                0,
                0.704538106918335,
                0
            ]
        },
        {
            "children" : [
                0,
                1,
                2
            ],
            "mesh" : 3,
            "name" : "PrototypePete_body"
        }
    ],
    "materials" : [
        {
            "name" : "PrototypePete",
            "pbrMetallicRoughness" : {
                "baseColorFactor" : [
                    1,
                    0.6507331728935242,
                    0.03768175467848778,
                    1
                ],
                "metallicFactor" : 0,
                "roughnessFactor" : 0.5
            }
        }
    ],
    "meshes" : [
        {
            "name" : "PrototypePete_armLeft",
            "primitives" : [
                {
                    "attributes" : {
                        "POSITION" : 0,
                        "NORMAL" : 1,
                        "TEXCOORD_0" : 2
                    },
                    "indices" : 3,
                    "material" : 0
                }
            ]
        },
        {
            "name" : "PrototypePete_armRight",
            "primitives" : [
                {
                    "attributes" : {
                        "POSITION" : 4,
                        "NORMAL" : 5,
                        "TEXCOORD_0" : 6
                    },
                    "indices" : 7,
                    "material" : 0
                }
            ]
        },
        {
            "name" : "PrototypePete_head",
            "primitives" : [
                {
                    "attributes" : {
                        "POSITION" : 8,
                        "NORMAL" : 9,
                        "TEXCOORD_0" : 10
                    },
                    "indices" : 11,
                    "material" : 0
                }
            ]
        },
        {
            "name" : "PrototypePete_body",
            "primitives" : [
                {
                    "attributes" : {
                        "POSITION" : 12,
                        "NORMAL" : 13,
                        "TEXCOORD_0" : 14
                    },
                    "indices" : 15,
                    "material" : 0
                }
            ]
        }
    ],
    "accessors" : [
        {
            "bufferView" : 0,
            "componentType" : 5126,
            "count" : 454,
            "max" : [
                0.288300484418869,
                0.09418356418609619,
                0.10315556079149246
            ],
            "min" : [
                -0.11533478647470474,
                -0.47665560245513916,
                -0.10315549373626709
            ],
            "type" : "VEC3"
        },
        {
            "bufferView" : 1,
            "componentType" : 5126,
            "count" : 454,
            "type" : "VEC3"
        },
        {
            "bufferView" : 2,
            "componentType" : 5126,
            "count" : 454,
            "type" : "VEC2"
        },
        {
            "bufferView" : 3,
            "componentType" : 5123,
            "count" : 1959,
            "type" : "SCALAR"
        },
        {
            "bufferView" : 4,
            "componentType" : 5126,
            "count" : 222,
            "max" : [
                0.11533478647470474,
                0.09418356418609619,
                0.09444604814052582
            ],
            "min" : [
                -0.26490139961242676,
                -0.47665560245513916,
                -0.09444599598646164
            ],
            "type" : "VEC3"
        },
        {
            "bufferView" : 5,
            "componentType" : 5126,
            "count" : 222,
            "type" : "VEC3"
        },
        {
            "bufferView" : 6,
            "componentType" : 5126,
            "count" : 222,
            "type" : "VEC2"
        },
        {
            "bufferView" : 7,
            "componentType" : 5123,
            "count" : 1080,
            "type" : "SCALAR"
        },
        {
            "bufferView" : 8,
            "componentType" : 5126,
            "count" : 2254,
            "max" : [
                0.5877275466918945,
                1.1948168277740479,
                0.5905293822288513
            ],
            "min" : [
                -0.587727427482605,
                0,
                -0.5274244546890259
            ],
            "type" : "VEC3"
        },
        {
            "bufferView" : 9,
            "componentType" : 5126,
            "count" : 2254,
            "type" : "VEC3"
        },
        {
            "bufferView" : 10,
            "componentType" : 5126,
            "count" : 2254,
            "type" : "VEC2"
        },
        {
            "bufferView" : 11,
            "componentType" : 5123,
            "count" : 9732,
            "type" : "SCALAR"
        },
        {
            "bufferView" : 12,
            "componentType" : 5126,
            "count" : 455,
            "max" : [
                0.33807387948036194,
                0.7255613207817078,
                0.35938477516174316
            ],
            "min" : [
                -0.33807384967803955,
                -2.2351741790771484e-08,
                -0.3499997556209564
            ],
            "type" : "VEC3"
        },
        {
            "bufferView" : 13,
            "componentType" : 5126,
            "count" : 455,
            "type" : "VEC3"
        },
        {
            "bufferView" : 14,
            "componentType" : 5126,
            "count" : 455,
            "type" : "VEC2"
        },
        {
            "bufferView" : 15,
            "componentType" : 5123,
            "count" : 1866,
            "type" : "SCALAR"
        }
    ],
    "bufferViews" : [
        {
            "buffer" : 0,
            "byteLength" : 5448,
            "byteOffset" : 0
        },
        {
            "buffer" : 0,
            "byteLength" : 5448,
            "byteOffset" : 5448
        },
        {
            "buffer" : 0,
            "byteLength" : 3632,
            "byteOffset" : 10896
        },
        {
            "buffer" : 0,
            "byteLength" : 3918,
            "byteOffset" : 14528
        },
        {
            "buffer" : 0,
            "byteLength" : 2664,
            "byteOffset" : 18448
        },
        {
            "buffer" : 0,
            "byteLength" : 2664,
            "byteOffset" : 21112
        },
        {
            "buffer" : 0,
            "byteLength" : 1776,
            "byteOffset" : 23776
        },
        {
            "buffer" : 0,
            "byteLength" : 2160,
            "byteOffset" : 25552
        },
        {
            "buffer" : 0,
            "byteLength" : 27048,
            "byteOffset" : 27712
        },
        {
            "buffer" : 0,
            "byteLength" : 27048,
            "byteOffset" : 54760
        },
        {
            "buffer" : 0,
            "byteLength" : 18032,
            "byteOffset" : 81808
        },
        {
            "buffer" : 0,
            "byteLength" : 19464,
            "byteOffset" : 99840
        },
        {
            "buffer" : 0,
            "byteLength" : 5460,
            "byteOffset" : 119304
        },
        {
            "buffer" : 0,
            "byteLength" : 5460,
            "byteOffset" : 124764
        },
        {
            "buffer" : 0,
            "byteLength" : 3640,
            "byteOffset" : 130224
        },
        {
            "buffer" : 0,
            "byteLength" : 3732,
            "byteOffset" : 133864
        }
    ],
    "buffers" : [
        {
            "byteLength" : 137596,
            "uri" : "data:application/octet-stream;base64,"
        }
    ]
}
